Coordinates
version=1
nRows=12
nColumns=34
inDegrees=yes

Units are S.I. units (second, meters, Newtons, ...)
If the header above contains a line with 'inDegrees', this indicates whether rotational values are in degrees (yes) or radians (no).

endheader
time	pelvis_tilt	pelvis_list	pelvis_rotation	pelvis_tx	pelvis_ty	pelvis_tz	hip_flexion_r	hip_adduction_r	hip_rotation_r	knee_angle_r	ankle_angle_r	subtalar_angle_r	mtp_angle_r	hip_flexion_l	hip_adduction_l	hip_rotation_l	knee_angle_l	ankle_angle_l	subtalar_angle_l	mtp_angle_l	lumbar_extension	lumbar_bending	lumbar_rotation	arm_flex_r	arm_add_r	arm_rot_r	elbow_flex_r	pro_sup_r	arm_flex_l	arm_add_l	arm_rot_l	elbow_flex_l	pro_sup_l
      0.00000000	     21.32722731	      1.16057499	      1.88680559	      0.27439125	      0.67730388	     -0.15069211	     70.65797420	    -10.31031455	      0.65101030	    100.01167995	    -14.81943334	    -34.99966203	      0.00000000	     68.18294057	    -11.22949530	     -1.56623424	     97.62232953	      1.29236001	     -7.84078893	      0.00000000	    -39.65838194	      4.94014977	      3.49406819	      3.46920855	     -9.19638630	      0.26523064	     43.38946843	     75.50060832	    185.12106949	    -17.56374667	     82.37900432	     17.69877468	     34.40197166
      0.01666670	     22.53293542	     -1.01347388	      2.90010592	      0.28306207	      0.68157448	     -0.15452711	     68.76210922	     -8.54779895	     -1.91149597	     98.86614245	     -7.35841236	    -32.68232567	      0.00000000	     70.77559511	     -8.25136375	      2.08715530	    100.70703709	      7.04384191	     -6.78985227	      0.00000000	    -38.66951805	      7.92181118	      3.77573306	      3.15908720	     -9.75292966	     -7.91912528	     44.58116261	     79.80840025	    181.64042309	    -17.39795448	     81.88849349	     12.73261747	     36.86415771
      0.03333330	     23.54958967	     -1.17293572	      3.43666431	      0.28652162	      0.68435439	     -0.15570280	     67.55211730	     -8.97073166	     -2.84216285	     98.71817581	     -2.53404614	    -30.89322180	      0.00000000	     69.98021321	     -6.91736883	      2.92241284	    100.36964989	      7.37305286	     -9.36341508	      0.00000000	    -38.67810621	      8.45861456	      4.47614286	      2.62104579	     -9.30459738	    -14.18322292	     46.70668327	     83.44116719	    180.68726277	    -17.40826171	     82.70652844	     12.93769523	     42.36780657
      0.05000000	     24.23015481	     -0.91135771	      3.20915081	      0.28708922	      0.68608911	     -0.15501389	     66.33091935	     -8.64657566	     -2.90221517	     98.00900900	      0.10194296	    -29.49235461	      0.00000000	     68.80819644	     -6.87328290	      2.77578606	    100.28232191	      7.08440588	    -10.04690662	      0.00000000	    -38.82419182	      7.96957357	      3.85035396	      3.02496030	     -8.35047402	    -16.52266833	     47.12313643	     89.91760771	    180.15296422	    -16.89892974	     84.75240691	     12.86119175	     53.06658671
      0.06666670	     24.60611340	     -0.54150199	      3.29584051	      0.28753569	      0.68677970	     -0.15482215	     65.42214939	     -8.71965267	     -2.82579558	     97.74924125	      1.42562493	    -29.43200402	      0.00000000	     68.08071445	     -6.42448243	      2.57323830	     99.90339869	      6.24249417	    -11.44812612	      0.00000000	    -39.04058260	      7.65596754	      2.83705047	      3.22540931	     -7.79764701	    -16.84666099	     47.28326253	     90.24104079	    180.12918108	    -16.76800492	     84.29431025	     13.37862091	     53.28115080
      0.08333330	     24.56651470	     -0.36214690	      3.34529776	      0.28778873	      0.68723455	     -0.15484441	     65.26522461	     -8.85302770	     -2.55747880	     97.83343054	      1.95860265	    -29.60547231	      0.00000000	     67.62563240	     -6.26720415	      2.36389949	     99.51260695	      6.75105286	    -11.69014290	      0.00000000	    -38.60141022	      7.58905928	      2.61856436	      3.29233896	     -7.18528305	    -18.84256228	     46.21359180	     97.32356123	    178.96154182	    -17.20624239	     77.05623811	     15.60169206	     55.06523739
      0.10000000	     24.68445262	     -0.39370180	      3.33386964	      0.28769498	      0.68709229	     -0.15480954	     65.10333596	     -8.91306772	     -2.42515445	     97.93350804	      2.37109081	    -29.73101033	      0.00000000	     67.41934657	     -6.31129848	      2.34141808	     99.47899758	      6.92834188	    -11.83278463	      0.00000000	    -38.70223231	      7.56614967	      2.40362912	      3.16528470	     -7.07479278	    -18.88820215	     46.12419878	     97.44373455	    179.22807154	    -17.06035647	     76.94438256	     15.81563497	     55.12442728
      0.11666670	     24.68725674	     -0.45474283	      3.32304594	      0.28788790	      0.68716308	     -0.15485772	     65.08946070	     -8.96905570	     -2.33656066	     98.05002332	      2.37158444	    -29.72494192	      0.00000000	     67.31714401	     -6.36471141	      2.33802796	     99.42853006	      6.95860746	    -11.85488268	      0.00000000	    -38.68381186	      7.63950481	      2.35205345	      3.10741167	     -7.09350430	    -18.90229084	     46.08587789	     97.45766550	    179.27153737	    -17.04371414	     76.92680003	     15.85467467	     55.12794168
      0.13333330	     24.91103334	     -0.20640631	      3.38751525	      0.28742319	      0.68733983	     -0.15506872	     64.84660375	     -9.30801703	     -2.06251887	     98.06033299	      2.17171108	    -29.46492121	      0.00000000	     66.91688507	     -6.20049527	      2.04989635	     99.30028778	      7.10160226	    -12.04188053	      0.00000000	    -38.79882153	      7.49049154	      1.18397565	      4.03636913	     -7.30402629	    -17.84452996	     44.38556501	    105.72802045	    178.74965700	    -17.74306186	     69.59222064	     18.13322126	     57.24103063
      0.15000000	     24.92113236	     -0.23861983	      3.26725116	      0.28751901	      0.68726650	     -0.15509821	     64.87619375	     -9.26308567	     -2.03886620	     98.06259746	      2.27781276	    -29.45629371	      0.00000000	     66.75300352	     -6.32255847	      1.98365681	     99.15525657	      7.45683719	    -12.21766709	      0.00000000	    -38.78705526	      7.49239038	      1.10423194	      4.07695445	     -7.41141488	    -17.98398166	     44.47250596	    105.77591443	    178.70796000	    -17.89573524	     69.59725358	     18.24262705	     57.31009515
      0.16666670	     24.92514589	     -0.23767464	      3.22603277	      0.28743688	      0.68716718	     -0.15507169	     64.87288993	     -9.30363287	     -2.06804390	     98.02976967	      2.27223953	    -29.44305333	      0.00000000	     66.77301012	     -6.35048331	      1.97953462	     99.19891992	      7.45784720	    -12.22073440	      0.00000000	    -38.81042675	      7.44230732	      1.09034274	      4.06852450	     -7.42480031	    -17.99253412	     44.47417063	    105.78031170	    178.70591189	    -17.93420845	     69.59524326	     18.24937197	     57.31483571
      0.18333330	     24.92828907	     -0.22391771	      3.25594238	      0.28777872	      0.68729985	     -0.15494478	     64.84528381	     -9.33053220	     -2.08254393	     97.99097900	      2.26564809	    -29.42875932	      0.00000000	     66.80665918	     -6.38654516	      1.95256289	     99.24456967	      7.45651238	    -12.22471978	      0.00000000	    -38.82151347	      7.39847627	      1.08528041	      4.06653188	     -7.44531520	    -17.99995319	     44.47958549	    105.78423871	    178.71023619	    -17.97070115	     69.59330299	     18.26046171	     57.31907693
